<svg xmlns="http://www.w3.org/2000/svg" width="1200" height="750" viewBox="0 0 1200 750" font-family="ui-sans-serif, system-ui, 'Segoe UI', sans-serif">
  <defs>
    <linearGradient id="ebg" x1="0" y1="0" x2="1" y2="1">
      <stop offset="0%" stop-color="#eef2fb"/>
      <stop offset="100%" stop-color="#dde6f7"/>
    </linearGradient>
    <linearGradient id="sidebar" x1="0" y1="0" x2="0" y2="1">
      <stop offset="0%" stop-color="#141d3d"/>
      <stop offset="100%" stop-color="#0b1330"/>
    </linearGradient>
    <filter id="ecard" x="-20%" y="-20%" width="140%" height="140%">
      <feDropShadow dx="0" dy="8" stdDeviation="16" flood-color="#1b2a5e" flood-opacity="0.14"/>
    </filter>
  </defs>

  <rect width="1200" height="750" fill="url(#ebg)"/>

  <!-- Sidebar -->
  <rect x="0" y="0" width="92" height="750" fill="url(#sidebar)"/>
  <circle cx="46" cy="56" r="19" fill="#3b5bfd"/>
  <path d="M37 52 l9 -6 l9 6 v11 a2 2 0 0 1 -2 2 h-14 a2 2 0 0 1 -2 -2 z" fill="#ffffff"/>
  <rect x="42" y="58" width="8" height="7" fill="#3b5bfd"/>

  <g fill="none" stroke="#5b6aa0" stroke-width="2.4" stroke-linecap="round" stroke-linejoin="round">
    <rect x="30" y="122" width="32" height="32" rx="10" fill="#1d2952" stroke="none"/>
    <path d="M40 148 v-10 h12 v10 M38 138 h16" stroke="#8fa0e8" transform="translate(0,-1)"/>
    <rect x="30" y="170" width="32" height="32" rx="10"/>
    <circle cx="46" cy="182" r="4.5"/>
    <path d="M38 194 a8 8 0 0 1 16 0"/>
    <rect x="30" y="218" width="32" height="32" rx="10"/>
    <rect x="38" y="226" width="16" height="14" rx="2"/>
    <path d="M38 231 h16 M42 224 v5 M50 224 v5"/>
    <rect x="30" y="266" width="32" height="32" rx="10"/>
    <path d="M38 282 h16 M38 276 h16 M38 288 h10"/>
  </g>

  <!-- Header -->
  <rect x="128" y="40" width="1032" height="76" rx="20" fill="#ffffff" filter="url(#ecard)"/>
  <rect x="160" y="62" width="150" height="16" rx="8" fill="#d9e1f5"/>
  <rect x="160" y="84" width="100" height="11" rx="5.5" fill="#e7edf9"/>

  <!-- Sélecteur multi-tenant : deux écoles -->
  <g transform="translate(700,78)">
    <rect x="-118" y="-24" width="118" height="48" rx="24" fill="#eef2fb"/>
    <circle cx="-92" cy="0" r="17" fill="#3b5bfd"/>
    <text x="-92" y="5" fill="#ffffff" font-size="13" font-weight="800" text-anchor="middle">LP</text>
    <circle cx="-52" cy="0" r="17" fill="#ffffff" stroke="#c7d3ee" stroke-width="2"/>
    <text x="-52" y="5" fill="#8895bf" font-size="13" font-weight="800" text-anchor="middle">SG</text>
    <path d="M-18 -5 l7 6 l-7 6" fill="none" stroke="#8895bf" stroke-width="2.6" stroke-linecap="round" stroke-linejoin="round"/>
  </g>

  <!-- Badge rôle -->
  <rect x="850" y="58" width="130" height="34" rx="17" fill="#e7f6ec"/>
  <circle cx="874" cy="75" r="6" fill="#16a34a"/>
  <rect x="890" y="70" width="72" height="10" rx="5" fill="#bfe3cc"/>

  <!-- Cloche notification -->
  <g transform="translate(1010,78)">
    <path d="M0 -16 a12 12 0 0 1 12 12 v6 l4 6 h-32 l4 -6 v-6 a12 12 0 0 1 12 -12 z" fill="none" stroke="#5b6aa0" stroke-width="2.4" stroke-linejoin="round"/>
    <path d="M-5 8 a5 5 0 0 0 10 0" fill="none" stroke="#5b6aa0" stroke-width="2.4"/>
    <circle cx="10" cy="-14" r="6" fill="#e2472e"/>
  </g>
  <!-- Verrou sécurité (RLS) -->
  <g transform="translate(1068,78)">
    <rect x="-11" y="-2" width="22" height="18" rx="5" fill="none" stroke="#5b6aa0" stroke-width="2.4"/>
    <path d="M-7 -2 v-6 a7 7 0 0 1 14 0 v6" fill="none" stroke="#5b6aa0" stroke-width="2.4"/>
    <circle cx="0" cy="7" r="2.6" fill="#5b6aa0"/>
  </g>

  <!-- Cartes métriques -->
  <g filter="url(#ecard)">
    <rect x="128" y="140" width="234" height="140" rx="22" fill="#ffffff"/>
    <rect x="368" y="140" width="234" height="140" rx="22" fill="#ffffff"/>
    <rect x="608" y="140" width="234" height="140" rx="22" fill="#ffffff"/>
    <rect x="848" y="140" width="234" height="140" rx="22" fill="#ffffff"/>
  </g>

  <!-- Carte élèves -->
  <circle cx="166" cy="178" r="18" fill="#e8edfc"/>
  <circle cx="166" cy="173" r="5.5" fill="#3b5bfd"/>
  <path d="M156 187 a10 8 0 0 1 20 0" fill="#3b5bfd"/>
  <text x="150" y="238" fill="#141d3d" font-size="30" font-weight="800">482</text>
  <rect x="150" y="252" width="90" height="10" rx="5" fill="#e7edf9"/>

  <!-- Carte enseignants -->
  <circle cx="406" cy="178" r="18" fill="#eef5ee"/>
  <circle cx="406" cy="173" r="5.5" fill="#16a34a"/>
  <path d="M396 187 a10 8 0 0 1 20 0" fill="#16a34a"/>
  <text x="390" y="238" fill="#141d3d" font-size="30" font-weight="800">34</text>
  <rect x="390" y="252" width="100" height="10" rx="5" fill="#e7edf9"/>

  <!-- Carte présence -->
  <g transform="translate(646,178)">
    <circle r="18" fill="#eef5ee"/>
    <path d="M-7 0 l5 6 l10 -12" fill="none" stroke="#16a34a" stroke-width="3.2" stroke-linecap="round" stroke-linejoin="round"/>
  </g>
  <text x="630" y="238" fill="#141d3d" font-size="30" font-weight="800">96 %</text>
  <rect x="630" y="252" width="110" height="10" rx="5" fill="#e7edf9"/>

  <!-- Carte frais impayés -->
  <circle cx="886" cy="178" r="18" fill="#fbeae7"/>
  <rect x="878" y="170" width="16" height="20" rx="2.5" fill="none" stroke="#e2472e" stroke-width="2.4"/>
  <line x1="881" y1="176" x2="891" y2="176" stroke="#e2472e" stroke-width="2"/>
  <line x1="881" y1="181" x2="891" y2="181" stroke="#e2472e" stroke-width="2"/>
  <text x="870" y="238" fill="#141d3d" font-size="30" font-weight="800">17</text>
  <rect x="870" y="252" width="110" height="10" rx="5" fill="#e7edf9"/>

  <!-- Graphique présence 7 jours -->
  <g filter="url(#ecard)">
    <rect x="128" y="316" width="474" height="290" rx="22" fill="#ffffff"/>
  </g>
  <rect x="160" y="348" width="160" height="14" rx="7" fill="#d9e1f5"/>
  <g>
    <rect x="170" y="500" width="30" height="70" rx="6" fill="#dbe4f8"/>
    <rect x="216" y="470" width="30" height="100" rx="6" fill="#dbe4f8"/>
    <rect x="262" y="440" width="30" height="130" rx="6" fill="#3b5bfd"/>
    <rect x="308" y="480" width="30" height="90" rx="6" fill="#dbe4f8"/>
    <rect x="354" y="410" width="30" height="160" rx="6" fill="#3b5bfd"/>
    <rect x="400" y="455" width="30" height="115" rx="6" fill="#dbe4f8"/>
    <rect x="446" y="425" width="30" height="145" rx="6" fill="#3b5bfd"/>
  </g>
  <line x1="160" y1="586" x2="576" y2="586" stroke="#eef1fa" stroke-width="2"/>

  <!-- Flux d'activité -->
  <g filter="url(#ecard)">
    <rect x="626" y="316" width="456" height="290" rx="22" fill="#ffffff"/>
  </g>
  <rect x="658" y="348" width="140" height="14" rx="7" fill="#d9e1f5"/>
  <g>
    <circle cx="676" cy="404" r="16" fill="#e8edfc"/>
    <rect x="702" y="396" width="240" height="10" rx="5" fill="#e7edf9"/>
    <rect x="702" y="412" width="150" height="9" rx="4.5" fill="#f1f4fb"/>

    <circle cx="676" cy="456" r="16" fill="#eef5ee"/>
    <rect x="702" y="448" width="220" height="10" rx="5" fill="#e7edf9"/>
    <rect x="702" y="464" width="170" height="9" rx="4.5" fill="#f1f4fb"/>

    <circle cx="676" cy="508" r="16" fill="#fbeae7"/>
    <rect x="702" y="500" width="200" height="10" rx="5" fill="#e7edf9"/>
    <rect x="702" y="516" width="140" height="9" rx="4.5" fill="#f1f4fb"/>

    <circle cx="676" cy="560" r="16" fill="#e8edfc"/>
    <rect x="702" y="552" width="230" height="10" rx="5" fill="#e7edf9"/>
    <rect x="702" y="568" width="160" height="9" rx="4.5" fill="#f1f4fb"/>
  </g>

  <!-- Badge bulletin PDF -->
  <g transform="translate(1082,672)" filter="url(#ecard)">
    <rect x="-46" y="-40" width="92" height="80" rx="14" fill="#ffffff"/>
    <rect x="-26" y="-24" width="52" height="48" rx="4" fill="#f1f4fb"/>
    <path d="M2 -24 v14 h14" fill="none" stroke="#c7d3ee" stroke-width="2"/>
    <rect x="-18" y="-6" width="36" height="6" rx="3" fill="#dbe4f8"/>
    <rect x="-18" y="6" width="26" height="6" rx="3" fill="#dbe4f8"/>
    <rect x="-14" y="16" width="28" height="14" rx="4" fill="#e2472e"/>
  </g>
</svg>
